<svg width="24" height="24" viewBox="0 0 24 24" fill="none" xmlns="http://www.w3.org/2000/svg">
<path d="M10.9907 0.500957L0.50174 10.9811C0.367608 11.1147 0.261178 11.2735 0.188556 11.4483C0.115935 11.6232 0.0785522 11.8106 0.0785522 12C0.0785522 12.1893 0.115935 12.3767 0.188556 12.5516C0.261178 12.7264 0.367608 12.8852 0.50174 13.0188L10.9907 23.499C11.1245 23.6329 11.2834 23.7391 11.4582 23.8116C11.6331 23.884 11.8205 23.9213 12.0098 23.9213C12.1991 23.9213 12.3866 23.884 12.5614 23.8116C12.7363 23.7391 12.8952 23.6329 13.029 23.499L17.4272 19.1045C17.5472 18.9846 17.6424 18.8421 17.7074 18.6853C17.7723 18.5286 17.8058 18.3605 17.8058 18.1908C17.8058 18.0211 17.7723 17.8531 17.7074 17.6963C17.6424 17.5396 17.5472 17.3971 17.4272 17.2771C17.1846 17.0348 16.8557 16.8986 16.5127 16.8986C16.1698 16.8986 15.8409 17.0348 15.5983 17.2771L12.2646 20.6081C12.1239 20.7487 11.9106 20.7487 11.7707 20.6081L3.39412 12.2394C3.25405 12.0988 3.25405 11.8858 3.39412 11.7459L11.7707 3.37646C11.9106 3.23658 12.1237 3.23658 12.2644 3.37646L15.5983 6.70739C15.8409 6.94979 16.1698 7.08594 16.5127 7.08594C16.8557 7.08594 17.1846 6.94979 17.4272 6.70739C17.5472 6.58743 17.6424 6.44499 17.7074 6.28821C17.7723 6.13144 17.8058 5.9634 17.8058 5.79371C17.8058 5.62401 17.7723 5.45597 17.7074 5.2992C17.6424 5.14243 17.5472 4.99999 17.4272 4.88002L13.0297 0.486332C12.4635 -0.0645434 11.5524 -0.0600434 10.9907 0.500957Z" fill="url(#paint0_linear_2_30)"/>
<path d="M10.9907 0.500957L0.50174 10.9811C0.367608 11.1147 0.261178 11.2735 0.188556 11.4483C0.115935 11.6232 0.0785522 11.8106 0.0785522 12C0.0785522 12.1893 0.115935 12.3767 0.188556 12.5516C0.261178 12.7264 0.367608 12.8852 0.50174 13.0188L10.9907 23.499C11.1245 23.6329 11.2834 23.7391 11.4582 23.8116C11.6331 23.884 11.8205 23.9213 12.0098 23.9213C12.1991 23.9213 12.3866 23.884 12.5614 23.8116C12.7363 23.7391 12.8952 23.6329 13.029 23.499L17.4272 19.1045C17.5472 18.9846 17.6424 18.8421 17.7074 18.6853C17.7723 18.5286 17.8058 18.3605 17.8058 18.1908C17.8058 18.0211 17.7723 17.8531 17.7074 17.6963C17.6424 17.5396 17.5472 17.3971 17.4272 17.2771C17.1846 17.0348 16.8557 16.8986 16.5127 16.8986C16.1698 16.8986 15.8409 17.0348 15.5983 17.2771L12.2646 20.6081C12.1239 20.7487 11.9106 20.7487 11.7707 20.6081L3.39412 12.2394C3.25405 12.0988 3.25405 11.8858 3.39412 11.7459L11.7707 3.37646C12.1202 3.07533 12.69 2.46521 13.5277 2.32252C14.1499 2.21639 14.8301 2.44977 15.5683 3.02264C15.0748 2.52914 14.2286 1.68371 13.0297 0.486332C12.4635 -0.0645434 11.5524 -0.0600434 10.9907 0.500957Z" fill="url(#paint1_linear_2_30)"/>
<path d="M18.4425 16.3021C18.6851 16.5445 19.0139 16.6806 19.3568 16.6806C19.6997 16.6806 20.0286 16.5445 20.2712 16.3021L23.5151 13.0612C23.6492 12.9276 23.7555 12.7689 23.8281 12.5942C23.9007 12.4194 23.9381 12.232 23.9381 12.0428C23.9381 11.8536 23.9007 11.6662 23.8281 11.4914C23.7555 11.3167 23.6492 11.1579 23.5151 11.0244L20.2427 7.76583C19.9995 7.52373 19.6702 7.38801 19.327 7.38843C18.9839 7.38885 18.6549 7.52539 18.4123 7.76808C18.2922 7.88797 18.1968 8.03039 18.1318 8.18717C18.0667 8.34395 18.0333 8.51203 18.0333 8.68176C18.0333 8.8515 18.0667 9.01958 18.1318 9.17636C18.1968 9.33314 18.2922 9.47556 18.4123 9.59545L20.6229 11.8036C20.6561 11.8356 20.6824 11.8739 20.7004 11.9162C20.7184 11.9586 20.7277 12.0041 20.7277 12.0501C20.7277 12.0961 20.7184 12.1417 20.7004 12.184C20.6824 12.2264 20.6561 12.2646 20.6229 12.2966L18.4423 14.4755C18.3222 14.5953 18.2269 14.7377 18.1618 14.8944C18.0968 15.0511 18.0633 15.2191 18.0633 15.3888C18.0633 15.5585 18.0968 15.7265 18.1618 15.8832C18.2269 16.04 18.3224 16.1823 18.4425 16.3021Z" fill="url(#paint2_linear_2_30)"/>
<path fill-rule="evenodd" clip-rule="evenodd" d="M14.8946 12.0527C14.8946 10.4897 13.6267 9.22253 12.0622 9.22253C10.4985 9.22253 9.23004 10.4897 9.23004 12.0527C9.23004 13.6149 10.4985 14.882 12.0622 14.882C13.6267 14.882 14.8946 13.6149 14.8946 12.0527Z" fill="url(#paint3_linear_2_30)"/>
<defs>
<linearGradient id="paint0_linear_2_30" x1="11.0867" y1="0.0760818" x2="21.0575" y2="6.17016" gradientUnits="userSpaceOnUse">
<stop stop-color="#4285EB"/>
<stop offset="1" stop-color="#2EC7FF"/>
</linearGradient>
<linearGradient id="paint1_linear_2_30" x1="12.4162" y1="0.0760818" x2="7.49336" y2="25.5304" gradientUnits="userSpaceOnUse">
<stop stop-color="#29CDFF"/>
<stop offset="0.379" stop-color="#148EFF"/>
<stop offset="1" stop-color="#0A60FF"/>
</linearGradient>
<linearGradient id="paint2_linear_2_30" x1="22.1486" y1="6.17984" x2="15.7399" y2="16.1995" gradientUnits="userSpaceOnUse">
<stop stop-color="#FA816E"/>
<stop offset="0.415" stop-color="#F74A5C"/>
<stop offset="1" stop-color="#F51D2C"/>
</linearGradient>
<linearGradient id="paint3_linear_2_30" x1="13.0876" y1="7.20231" x2="10.9557" y2="15.7263" gradientUnits="userSpaceOnUse">
<stop stop-color="#FA8E7D"/>
<stop offset="0.513" stop-color="#F74A5C"/>
<stop offset="1" stop-color="#F51D2C"/>
</linearGradient>
</defs>
</svg>
