<svg width="24" height="24" viewBox="0 0 24 24" fill="none" xmlns="http://www.w3.org/2000/svg">
<path d="M18.375 0H5.625C2.5184 0 0 2.5184 0 5.625V18.375C0 21.4816 2.5184 24 5.625 24H18.375C21.4816 24 24 21.4816 24 18.375V5.625C24 2.5184 21.4816 0 18.375 0Z" fill="#F03C2E"/>
<mask id="mask0_7_17" style="mask-type:luminance" maskUnits="userSpaceOnUse" x="2" y="2" width="20" height="20">
<path d="M2.625 2.625H21.375V21.375H2.625V2.625Z" fill="white"/>
</mask>
<g mask="url(#mask0_7_17)">
<path d="M21.0213 11.165L12.8351 2.97886C12.6663 2.80989 12.4512 2.69482 12.217 2.6482C11.9828 2.60159 11.74 2.62554 11.5193 2.71702C11.3729 2.77779 11.2399 2.86676 11.1278 2.97886L9.42853 4.67808L11.5848 6.83433C12.0863 6.65855 12.6606 6.77864 13.0601 7.1783C13.2504 7.36885 13.3832 7.60907 13.4434 7.87151C13.5036 8.13396 13.4887 8.40804 13.4005 8.66245L15.4789 10.7408C15.9817 10.5674 16.5617 10.6792 16.963 11.0818C17.1641 11.2827 17.301 11.5388 17.3564 11.8176C17.4119 12.0964 17.3833 12.3854 17.2744 12.648C17.1284 13 16.8486 13.2796 16.4965 13.4254C16.1444 13.5712 15.7488 13.5712 15.3967 13.4254C15.2223 13.3531 15.0638 13.2473 14.9304 13.1138C14.5086 12.6919 14.4043 12.0708 14.6176 11.5511L12.6793 9.6128V14.7135C12.82 14.7831 12.9486 14.8749 13.0601 14.9853C13.3296 15.2548 13.481 15.6203 13.481 16.0013C13.481 16.3824 13.3296 16.7479 13.0601 17.0174C12.7907 17.2868 12.4252 17.4382 12.0441 17.4382C11.663 17.4382 11.2976 17.2868 11.0281 17.0174C10.827 16.8165 10.69 16.5605 10.6345 16.2817C10.579 16.0029 10.6075 15.7139 10.7163 15.4514C10.7886 15.277 10.8945 15.1186 11.0281 14.9853C11.1669 14.847 11.3211 14.7421 11.4986 14.6718V9.52373C11.3224 9.45174 11.1624 9.34517 11.0281 9.21033C10.8264 9.0088 10.6892 8.75176 10.6341 8.47197C10.579 8.19219 10.6085 7.90234 10.7187 7.63936L8.59182 5.51377L2.97853 11.1211C2.80955 11.29 2.69445 11.5052 2.64781 11.7395C2.60117 11.9738 2.62507 12.2167 2.7165 12.4374C2.77731 12.5839 2.86634 12.717 2.97853 12.8292L11.1653 21.0147C11.2774 21.1268 11.4104 21.2157 11.5568 21.2765C11.8528 21.3989 12.1851 21.3989 12.481 21.2765C12.6275 21.2157 12.7605 21.1268 12.8726 21.0147L21.0213 12.879C21.1335 12.7668 21.2225 12.6337 21.2832 12.4872C21.344 12.3407 21.3753 12.1836 21.3753 12.025C21.3753 11.8664 21.344 11.7093 21.2833 11.5627C21.2225 11.4162 21.1335 11.283 21.0213 11.1709" fill="white"/>
</g>
</svg>
