<svg width="24" height="24" viewBox="0 0 24 24" fill="none" xmlns="http://www.w3.org/2000/svg">
<path d="M7.3125 8.25V15.75M7.3125 12.6565C7.3125 12.1592 7.51004 11.6823 7.86167 11.3307C8.21331 10.979 8.69022 10.7815 9.1875 10.7815C9.68478 10.7815 10.1617 10.979 10.5133 11.3307C10.865 11.6823 11.0625 12.1592 11.0625 12.6565V15.75M12.9375 8.25V15.75M12.9375 12.6565C12.9375 12.1592 13.135 11.6823 13.4867 11.3307C13.8383 10.979 14.3152 10.7815 14.8125 10.7815C15.0587 10.7815 15.3025 10.83 15.53 10.9242C15.7575 11.0185 15.9642 11.1566 16.1383 11.3307C16.3124 11.5048 16.4505 11.7115 16.5448 11.939C16.639 12.1665 16.6875 12.4103 16.6875 12.6565V15.75" stroke="black" stroke-width="0.5" stroke-linecap="round" stroke-linejoin="round"/>
<path d="M19.25 2.75H4.75C3.64543 2.75 2.75 3.64543 2.75 4.75V19.25C2.75 20.3546 3.64543 21.25 4.75 21.25H19.25C20.3546 21.25 21.25 20.3546 21.25 19.25V4.75C21.25 3.64543 20.3546 2.75 19.25 2.75Z" stroke="black" stroke-width="0.5" stroke-linecap="round" stroke-linejoin="round"/>
</svg>
