<svg width="24" height="24" viewBox="0 0 24 24" fill="none" xmlns="http://www.w3.org/2000/svg">
<path d="M15.0979 8.28489C14.7542 8.17371 14.5766 8.21121 14.2162 8.17071C13.659 8.10827 13.437 7.8842 13.3429 7.30764C13.2902 6.9857 13.3522 6.51452 13.2178 6.22277C12.9606 5.66645 12.3583 5.41689 11.7534 5.55939C11.2427 5.67977 10.8178 6.20477 10.7942 6.74383C10.7674 7.35902 11.1082 7.88421 11.6934 8.06533C11.9715 8.15158 12.267 8.19508 12.5574 8.21702C13.0899 8.25696 13.131 8.56146 13.275 8.81214C13.3657 8.97021 13.4539 9.12583 13.4539 9.59702C13.4539 10.0682 13.3652 10.224 13.275 10.3821C13.131 10.632 12.9532 10.7959 12.4206 10.8364C12.1303 10.8585 11.8342 10.902 11.5567 10.9883C10.9714 11.17 10.6305 11.6944 10.6575 12.3098C10.6809 12.8486 11.106 13.3736 11.6167 13.494C12.2216 13.6371 12.8237 13.3871 13.0811 12.8306C13.2161 12.5389 13.2902 12.2083 13.3429 11.8866C13.4376 11.31 13.6596 11.086 14.2162 11.0233C14.5768 10.9828 14.9497 11.0233 15.2876 10.8261C15.6444 10.5578 15.9634 10.155 15.9634 9.59702C15.9634 9.03902 15.6197 8.45402 15.0979 8.28489Z" fill="#F44250"/>
<path d="M9.38062 10.9049C8.67806 10.9049 8.10525 10.3142 8.10525 9.5905C8.10525 8.86656 8.67806 8.27612 9.38062 8.27612C10.0832 8.27612 10.656 8.86656 10.656 9.5905C10.656 10.3139 10.0824 10.9049 9.38062 10.9049ZM7.03088 13.576C6.32963 13.5743 5.75831 12.9816 5.76 12.2569C5.76169 11.5337 6.33694 10.945 7.03988 10.9472C7.74169 10.9491 8.313 11.5418 8.31075 12.2663C8.30906 12.9891 7.73381 13.5779 7.03088 13.576ZM16.5079 13.576C15.8044 13.5801 15.2269 12.9936 15.2229 12.2716C15.219 11.5465 15.7881 10.9514 16.4886 10.9472C17.1923 10.9433 17.7698 11.5296 17.7737 12.2519C17.7774 12.9762 17.2086 13.5719 16.5079 13.576ZM2.42963 18.1898C2.34037 18.0936 2.32763 17.9766 2.28938 17.5834C2.25938 17.278 2.09775 17.1233 1.82119 17.0689C2.14894 17.0271 2.39138 16.7761 2.39138 16.3913C2.39138 15.8768 2.04675 15.5547 1.35319 15.5547H0V18.1898H0.710625V17.3157H1.19138C1.434 17.3157 1.566 17.3826 1.58719 17.6837C1.60856 17.9556 1.6425 18.1187 1.69781 18.19L2.42963 18.1898ZM0.710625 16.7678V16.1236H1.2255C1.53187 16.1236 1.68506 16.2364 1.68506 16.4498C1.68506 16.6924 1.53187 16.7678 1.2255 16.7678H0.710625ZM4.00781 17.5247C3.94406 17.6712 3.82481 17.734 3.6375 17.734C3.429 17.734 3.25875 17.6252 3.24188 17.3952H4.57369V17.2069C4.57369 16.7007 4.2375 16.2741 3.60356 16.2741C3.012 16.2741 2.5695 16.6966 2.5695 17.2864C2.5695 17.8802 3.00356 18.2401 3.612 18.2401C4.11412 18.2401 4.46325 18.0016 4.56094 17.575L4.00781 17.5247ZM3.25031 17.0689C3.27581 16.8932 3.37369 16.7594 3.59494 16.7594C3.79931 16.7594 3.90994 16.9015 3.91838 17.0687L3.25031 17.0689ZM5.95106 17.4119C5.95106 17.6545 5.79356 17.7966 5.59781 17.7966C5.48306 17.7966 5.40656 17.734 5.40656 17.6378C5.40656 17.5165 5.50425 17.4662 5.67019 17.4329L5.95106 17.3826V17.4119ZM6.62775 17.0061C6.62775 16.4875 6.25744 16.2741 5.75531 16.2741C5.18531 16.2741 4.87444 16.5586 4.815 16.9684L5.45325 17.0104C5.48306 16.8722 5.55956 16.7761 5.71275 16.7761C5.87869 16.7761 5.95106 16.8681 5.95106 17.0228V17.0522L5.41913 17.14C5.00663 17.2112 4.74263 17.3659 4.74263 17.7256C4.74263 18.0436 4.98525 18.2318 5.35538 18.2318C5.65744 18.2318 5.87456 18.1187 5.98519 17.9012C6.04894 18.1146 6.23194 18.2316 6.46594 18.2316C6.66169 18.2316 6.79781 18.1772 6.89569 18.1105V17.7505C6.8471 17.7704 6.79501 17.7804 6.7425 17.7799C6.67013 17.7799 6.62775 17.7381 6.62775 17.6419V17.0061ZM6.97425 17.2572C6.97425 17.851 7.41263 18.2401 8.01262 18.2401C8.58263 18.2401 8.90194 17.8802 8.94881 17.4286L8.38275 17.3867C8.33587 17.6168 8.22112 17.7299 8.02106 17.7299C7.81256 17.7299 7.66781 17.5917 7.66781 17.2572C7.66781 16.9227 7.81256 16.7845 8.02106 16.7845C8.22112 16.7845 8.33606 16.8932 8.38294 17.1233L8.94881 17.0856C8.90194 16.6381 8.58281 16.2741 8.01262 16.2741C7.41263 16.2741 6.97425 16.6673 6.97425 17.2572ZM9.2805 17.6712C9.2805 18.1105 9.58237 18.2401 9.90169 18.2401C10.1612 18.2401 10.3273 18.1772 10.4719 18.0728V17.6335C10.3569 17.6796 10.2634 17.6963 10.1783 17.6963C10.0378 17.6963 9.96131 17.6335 9.96131 17.4747V16.7926H10.4548V16.3242H9.96131V15.8097H9.52725L9.4635 16.0523C9.41663 16.2239 9.357 16.3242 9.16537 16.3534L9.02512 16.3744V16.7926H9.28031V17.671L9.2805 17.6712ZM13.9487 18.1898C13.8594 18.0936 13.8465 17.9766 13.8082 17.5834C13.7784 17.278 13.6168 17.1233 13.3403 17.0689C13.6678 17.0271 13.9103 16.7761 13.9103 16.3913C13.9103 15.8768 13.5658 15.5547 12.8721 15.5547H11.5191V18.1898H12.2297V17.3157H12.7104C12.9531 17.3157 13.0849 17.3826 13.1061 17.6837C13.1274 17.9556 13.1616 18.1187 13.2167 18.19L13.9487 18.1898ZM12.2297 16.7678V16.1236H12.7446C13.0509 16.1236 13.2039 16.2364 13.2039 16.4498C13.2039 16.6924 13.0509 16.7678 12.7446 16.7678H12.2297ZM14.7821 17.2572C14.7821 16.9769 14.8843 16.7845 15.1268 16.7845C15.3651 16.7845 15.4714 16.9769 15.4714 17.257C15.4714 17.5371 15.3651 17.7297 15.1268 17.7297C14.8843 17.7297 14.7821 17.5373 14.7821 17.2572ZM16.1651 17.2572C16.1651 16.6799 15.7438 16.2741 15.1268 16.2741C14.5056 16.2741 14.0886 16.6799 14.0886 17.2572C14.0886 17.8384 14.5056 18.2401 15.1268 18.2401C15.7436 18.2401 16.1651 17.8384 16.1651 17.2572ZM17.6895 17.2403C17.6895 17.5247 17.6046 17.7089 17.3876 17.7089C17.1789 17.7089 17.1064 17.5709 17.1064 17.3198V16.3244H16.4175V17.4998C16.4175 17.8887 16.575 18.2401 17.094 18.2401C17.379 18.2401 17.5875 18.1187 17.6897 17.9097V18.1898H18.3789V16.3244H17.6897L17.6895 17.2403ZM18.8214 17.6712C18.8214 18.1105 19.1235 18.2401 19.4426 18.2401C19.7021 18.2401 19.8682 18.1772 20.0128 18.0728V17.6335C19.8979 17.6796 19.8043 17.6963 19.7192 17.6963C19.5789 17.6963 19.5021 17.6335 19.5021 17.4747V16.7926H19.9958V16.3242H19.5021V15.8097H19.0682L19.0044 16.0523C18.9576 16.2239 18.8979 16.3242 18.7063 16.3534L18.5661 16.3744V16.7926H18.8214V17.6712ZM21.6144 17.5249C21.5507 17.6712 21.4316 17.734 21.2443 17.734C21.0358 17.734 20.8657 17.6252 20.8485 17.3952H22.1805V17.2069C22.1805 16.7007 21.8443 16.2741 21.2102 16.2741C20.6188 16.2741 20.1761 16.6966 20.1761 17.2864C20.1761 17.8802 20.6102 18.2401 21.2188 18.2401C21.7209 18.2401 22.0699 18.0016 22.1677 17.575L21.6144 17.5249ZM20.8571 17.0689C20.8826 16.8932 20.9805 16.7594 21.2017 16.7594C21.4061 16.7594 21.5168 16.9015 21.525 17.0687L20.8571 17.0689ZM23.9321 16.3452C23.8853 16.3077 23.7833 16.2741 23.6683 16.2741C23.4172 16.2741 23.2174 16.4457 23.1491 16.6547V16.3244H22.4599V18.19H23.1491V17.3367C23.1491 17.0228 23.3066 16.9058 23.5618 16.9058C23.6938 16.9058 23.796 16.9309 23.8898 16.9853L23.9321 16.3452Z" fill="#121212"/>
</svg>
