<svg width="24" height="24" viewBox="0 0 24 24" fill="none" xmlns="http://www.w3.org/2000/svg">
<path d="M18.375 0H5.625C2.5184 0 0 2.5184 0 5.625V18.375C0 21.4816 2.5184 24 5.625 24H18.375C21.4816 24 24 21.4816 24 18.375V5.625C24 2.5184 21.4816 0 18.375 0Z" fill="#764ABC"/>
<path d="M15.6168 15.5249C16.3088 15.4533 16.8337 14.8567 16.8098 14.141C16.7859 13.4252 16.1894 12.8525 15.4736 12.8525H15.4259C14.6862 12.8764 14.1136 13.4967 14.1374 14.2364C14.1613 14.5943 14.3045 14.9045 14.5192 15.1192C13.7079 16.7179 12.4673 17.887 10.6061 18.8653C9.34154 19.5334 8.02923 19.7719 6.71691 19.605C5.6432 19.4618 4.80816 18.9845 4.28316 18.1972C3.51966 17.0281 3.44813 15.7635 4.09229 14.4989C4.54566 13.5921 5.26145 12.9241 5.71482 12.59C5.61938 12.2799 5.47623 11.7549 5.4046 11.3732C1.94495 13.8785 2.30279 17.2667 3.3526 18.8653C4.1401 20.0583 5.73863 20.7979 7.50432 20.7979C7.98151 20.7979 8.4587 20.7502 8.93588 20.6309C11.9901 20.0345 14.3045 18.221 15.6168 15.5249Z" fill="white"/>
<path d="M19.8161 12.5663C18.0028 10.4427 15.3305 9.27361 12.2764 9.27361H11.8946C11.6798 8.84405 11.2265 8.55774 10.7255 8.55774H10.6777C9.93805 8.58165 9.36542 9.20199 9.38924 9.94168C9.41314 10.6575 10.0096 11.2301 10.7255 11.2301H10.7732C11.2981 11.2063 11.7515 10.8722 11.9423 10.4189H12.3718C14.1851 10.4189 15.9031 10.9438 17.454 11.9698C18.647 12.7572 19.506 13.7832 19.9832 15.0239C20.3888 16.026 20.3649 17.0042 19.9355 17.8394C19.2674 19.104 18.146 19.7959 16.6666 19.7959C15.7122 19.7959 14.8055 19.5096 14.3283 19.2948C14.0659 19.5334 13.5887 19.9152 13.2546 20.1538C14.2805 20.631 15.3305 20.8935 16.3325 20.8935C18.6231 20.8935 20.3172 19.6289 20.9615 18.3643C21.6534 16.9804 21.6057 14.5944 19.8161 12.5663Z" fill="white"/>
<path d="M7.69519 15.9306C7.7191 16.6463 8.31554 17.219 9.03141 17.219H9.07913C9.81872 17.1951 10.3914 16.5747 10.3675 15.835C10.3437 15.1192 9.74719 14.5466 9.03141 14.5466H8.9836C8.93597 14.5466 8.86435 14.5466 8.81672 14.5705C7.83835 12.948 7.43279 11.1823 7.57594 9.27356C7.67138 7.842 8.14857 6.60122 8.98369 5.57512C9.67557 4.69237 11.0118 4.26291 11.9184 4.239C14.4476 4.19128 15.5213 7.34081 15.5929 8.6055C15.9031 8.67703 16.428 8.844 16.7859 8.96334C16.4996 5.09812 14.1136 3.09375 11.823 3.09375C9.67557 3.09375 7.69519 4.64466 6.90779 6.93525C5.81026 9.98934 6.52604 12.9241 7.86216 15.2386C7.74291 15.4056 7.67129 15.6681 7.69519 15.9306Z" fill="white"/>
</svg>
