<svg width="24" height="24" viewBox="0 0 24 24" fill="none" xmlns="http://www.w3.org/2000/svg">
<path fill-rule="evenodd" clip-rule="evenodd" d="M12 1.5C14.0767 1.5 16.1068 2.11581 17.8335 3.26957C19.5602 4.42332 20.906 6.0632 21.7007 7.98182C22.4955 9.90045 22.7034 12.0116 22.2982 14.0484C21.8931 16.0852 20.8931 17.9562 19.4246 19.4246C17.9562 20.8931 16.0852 21.8931 14.0484 22.2982C12.0116 22.7034 9.90045 22.4955 7.98182 21.7007C6.0632 20.906 4.42332 19.5602 3.26957 17.8335C2.11581 16.1068 1.5 14.0767 1.5 12C1.5 9.21523 2.60625 6.54451 4.57538 4.57538C6.54451 2.60625 9.21523 1.5 12 1.5Z" fill="#CC6699"/>
<path d="M18.5865 5.99406C18.111 4.12956 15.0188 3.51906 12.0923 4.55556C10.2595 5.17133 8.56614 6.14262 7.10927 7.41381C5.49752 8.92131 5.24027 10.2338 5.34602 10.7821C5.72102 12.7171 8.37077 13.9816 9.46052 14.9198V14.9251C9.13952 15.0833 6.78752 16.2751 6.23552 17.4901C5.65502 18.7741 6.32777 19.6951 6.77402 19.8188C7.44401 19.9801 8.14769 19.9276 8.78633 19.6687C9.42497 19.4098 9.96653 18.9574 10.335 18.3751C10.6398 17.9033 10.8304 17.3671 10.8919 16.8089C10.9533 16.2506 10.8839 15.6858 10.689 15.1591C11.2138 15.025 11.7596 14.9936 12.2963 15.0668C14.1383 15.2821 14.4998 16.4318 14.4308 16.9133C14.3983 17.0847 14.3293 17.2471 14.2285 17.3895C14.1277 17.5318 13.9974 17.6508 13.8465 17.7383C13.7175 17.8186 13.6778 17.8456 13.689 17.9056C13.7048 17.9918 13.764 17.9888 13.8743 17.9701C14.1511 17.8829 14.395 17.7139 14.5738 17.4854C14.7527 17.2568 14.8582 16.9795 14.8763 16.6898C14.9205 15.5648 13.8398 14.3003 11.9258 14.3326C11.3698 14.3162 10.815 14.3922 10.284 14.5576L10.203 14.4676C9.01952 13.2053 6.83252 12.3121 6.92477 10.6148C6.95852 9.99756 7.17302 8.37306 11.1248 6.40206C14.3648 4.78731 16.9583 5.23206 17.4068 6.21681C18.0473 7.62381 16.0208 10.2376 12.6563 10.6148C12.2844 10.6903 11.9003 10.6811 11.5325 10.5879C11.1647 10.4946 10.8225 10.3198 10.5315 10.0763C10.3545 9.88131 10.3283 9.87306 10.2623 9.90906C10.155 9.96831 10.2233 10.1408 10.2623 10.2428C10.3911 10.475 10.565 10.6791 10.7738 10.8431C10.9826 11.0072 11.222 11.128 11.478 11.1983C12.8009 11.4853 14.1805 11.3489 15.4215 10.8083C17.4623 10.0216 19.0538 7.82781 18.5865 5.99406ZM9.91352 15.4973C10.0618 16.0109 10.0542 16.557 9.89177 17.0663C9.87427 17.1193 9.85502 17.1718 9.83402 17.2238C9.81302 17.2758 9.79027 17.3258 9.76577 17.3738C9.63873 17.6316 9.47531 17.8698 9.28052 18.0811C8.67077 18.7463 7.81802 18.9983 7.45277 18.7861C7.05827 18.5573 7.25552 17.6191 7.96277 16.8713C8.5064 16.3341 9.1329 15.8879 9.81827 15.5498L9.91352 15.4973Z" fill="white"/>
</svg>
