<svg width="24" height="24" viewBox="0 0 24 24" fill="none" xmlns="http://www.w3.org/2000/svg">
<path d="M12 0C8.81812 0 5.76375 1.26506 3.51562 3.51469C1.2652 5.76522 0.000643966 8.81734 0 12C0 15.1813 1.26562 18.2357 3.51562 20.4853C5.76375 22.7349 8.81812 24 12 24C15.1819 24 18.2362 22.7349 20.4844 20.4853C22.7344 18.2357 24 15.1813 24 12C24 8.81869 22.7344 5.76431 20.4844 3.51469C18.2362 1.26506 15.1819 0 12 0Z" fill="url(#paint0_linear_1_90)"/>
<path d="M5.43187 11.8732C8.93062 10.3492 11.2631 9.34448 12.4294 8.85898C15.7631 7.47279 16.455 7.23204 16.9069 7.22389C17.0062 7.22229 17.2275 7.24686 17.3719 7.36357C17.4919 7.46201 17.5256 7.59514 17.5425 7.68861C17.5575 7.78198 17.5781 7.99479 17.5612 8.16092C17.3812 10.0584 16.5994 14.663 16.2019 16.7884C16.035 17.6876 15.7031 17.9891 15.3825 18.0185C14.685 18.0827 14.1562 17.558 13.4812 17.1157C12.4256 16.4233 11.8294 15.9924 10.8037 15.3169C9.61875 14.5361 10.3875 14.1069 11.0625 13.4057C11.2387 13.2221 14.31 10.4293 14.3681 10.176C14.3756 10.1443 14.3831 10.0262 14.3119 9.96392C14.2425 9.90148 14.1394 9.92286 14.0644 9.93973C13.9575 9.96373 12.2719 11.079 9.00187 13.2853C8.52375 13.6142 8.09062 13.7745 7.70062 13.766C7.27312 13.7569 6.44812 13.5238 5.835 13.3247C5.085 13.0804 4.48687 12.9512 4.53937 12.5362C4.56562 12.3202 4.86375 12.0992 5.43187 11.8732Z" fill="white"/>
<defs>
<linearGradient id="paint0_linear_1_90" x1="1200" y1="0" x2="1200" y2="2400" gradientUnits="userSpaceOnUse">
<stop stop-color="#2AABEE"/>
<stop offset="1" stop-color="#229ED9"/>
</linearGradient>
</defs>
</svg>
