<svg width="24" height="24" viewBox="0 0 24 24" fill="none" xmlns="http://www.w3.org/2000/svg">
<path d="M18.375 0H5.625C2.5184 0 0 2.5184 0 5.625V18.375C0 21.4816 2.5184 24 5.625 24H18.375C21.4816 24 24 21.4816 24 18.375V5.625C24 2.5184 21.4816 0 18.375 0Z" fill="#007ACC"/>
<path d="M5.30728 12.0796L5.29968 13.0625H8.42343V21.9386H10.633V13.0625H13.7568V12.0987C13.7568 11.5653 13.7454 11.1196 13.7302 11.1082C13.7187 11.093 11.8177 11.0853 9.51299 11.0892L5.31871 11.1006L5.30728 12.0796ZM19.3657 11.0727C19.9751 11.2251 20.4399 11.4956 20.8666 11.9374C21.0876 12.1737 21.4151 12.6042 21.4418 12.707C21.4494 12.7375 20.4056 13.4384 19.7733 13.8308C19.7504 13.8461 19.6589 13.747 19.5561 13.5946C19.2475 13.1451 18.9237 12.9507 18.4284 12.9165C17.7008 12.8669 17.2323 13.2479 17.2361 13.8841C17.2361 14.0708 17.2627 14.1812 17.339 14.3336C17.4989 14.6651 17.7961 14.8632 18.7295 15.2669C20.4475 16.0061 21.1827 16.4936 21.6399 17.1869C22.1504 17.9603 22.2647 19.1946 21.918 20.1127C21.5371 21.1107 20.5923 21.7888 19.2627 22.0136C18.8513 22.086 17.8761 22.0746 17.4342 21.9946C16.4704 21.8231 15.5561 21.347 14.9923 20.7222C14.7713 20.4784 14.3408 19.8422 14.3676 19.7965C14.3789 19.7813 14.478 19.7203 14.5884 19.6556C14.6951 19.5946 15.099 19.3622 15.4799 19.1412L16.1694 18.7412L16.3142 18.9546C16.5161 19.2631 16.958 19.686 17.2247 19.8269C17.9903 20.2308 19.0418 20.1736 19.5599 19.7089C19.7809 19.507 19.8723 19.2974 19.8723 18.9889C19.8723 18.7107 19.838 18.5889 19.6932 18.3793C19.5066 18.1127 19.1257 17.8879 18.0437 17.4193C16.8056 16.886 16.2723 16.5546 15.7847 16.0288C15.5028 15.7241 15.2361 15.2365 15.1256 14.8288C15.0342 14.4898 15.0113 13.6403 15.0837 13.2974C15.3389 12.1013 16.2418 11.267 17.5447 11.0193C17.9676 10.9393 18.9503 10.9698 19.3657 11.0727Z" fill="white"/>
</svg>
